<svg width="48" height="48" viewBox="0 0 48 48" fill="none" xmlns="http://www.w3.org/2000/svg">
<path d="M23.8515 0C27.1532 0 30.2556 0.626174 33.1588 1.87852C36.0619 3.13087 38.5951 4.83862 40.7582 7.00176C42.9214 9.16491 44.6291 11.6886 45.8815 14.5728C47.1338 17.457 47.76 20.5499 47.76 23.8515C47.76 27.1532 47.1338 30.2556 45.8815 33.1588C44.6291 36.0619 42.9214 38.5951 40.7582 40.7582C38.5951 42.9214 36.0619 44.6291 33.1588 45.8815C30.2556 47.1338 27.1532 47.76 23.8515 47.76C20.5499 47.76 17.457 47.1338 14.5728 45.8815C11.6886 44.6291 9.16491 42.9214 7.00176 40.7582C4.83862 38.5951 3.13087 36.0619 1.87852 33.1588C0.626174 30.2556 0 27.1532 0 23.8515C0 20.5499 0.626174 17.457 1.87852 14.5728C3.13087 11.6886 4.83862 9.16491 7.00176 7.00176C9.16491 4.83862 11.6886 3.13087 14.5728 1.87852C17.457 0.626174 20.5499 0 23.8515 0ZM32.8457 10.4173H27.7794C26.7927 10.4173 25.8819 10.588 25.047 10.9296C24.2121 11.2711 23.4815 11.7265 22.8554 12.2958C22.2292 12.865 21.7453 13.5102 21.4038 14.2312C21.0622 14.9523 20.8914 15.6733 20.8914 16.3944V19.4114H16.3944V25.3316H20.8914V37.2858H26.8686V25.3316H31.3087V19.4114H26.8686V17.8744C26.8686 17.419 27.0488 17.0585 27.4093 16.7928C27.7699 16.5272 28.083 16.3944 28.3486 16.3944H32.8457V10.4173Z" fill="black"/>
</svg>
