<svg width="48" height="48" viewBox="0 0 48 48" fill="none" xmlns="http://www.w3.org/2000/svg">
<path d="M31.9541 23.9085C31.9541 23.2618 31.859 22.5581 31.6688 21.7973H34.0654V33.3236C34.0654 33.6279 33.9608 33.8752 33.7515 34.0654C33.5423 34.2556 33.2855 34.3507 32.9812 34.3507H14.2082C13.9038 34.3507 13.6566 34.2556 13.4664 34.0654C13.2762 33.8752 13.1811 33.6279 13.1811 33.3236V21.7973H15.5206C15.3304 22.5581 15.2353 23.2618 15.2353 23.9085C15.2353 25.0497 15.454 26.1339 15.8915 27.161C16.3289 28.1881 16.9281 29.0725 17.6889 29.8143C18.4497 30.5561 19.3437 31.1458 20.3708 31.5832C21.3978 32.0207 22.482 32.2394 23.6232 32.2394C24.7644 32.2394 25.8486 32.0207 26.8757 31.5832C27.9028 31.1458 28.7872 30.5561 29.529 29.8143C30.2708 29.0725 30.8605 28.1881 31.2979 27.161C31.7354 26.1339 31.9541 25.0497 31.9541 23.9085ZM23.6232 29.1011C22.9005 29.1011 22.2157 28.9679 21.569 28.7016C20.9223 28.4354 20.3612 28.0645 19.8857 27.589C19.4102 27.1135 19.0393 26.5619 18.773 25.9342C18.5068 25.3065 18.3736 24.6313 18.3736 23.9085C18.3736 23.1858 18.5068 22.501 18.773 21.8543C19.0393 21.2076 19.4102 20.6465 19.8857 20.171C20.3612 19.6955 20.9223 19.3246 21.569 19.0584C22.2157 18.7921 22.9005 18.6589 23.6232 18.6589C24.346 18.6589 25.0212 18.7921 25.6489 19.0584C26.2766 19.3246 26.8281 19.6955 27.3037 20.171C27.7792 20.6465 28.1501 21.2076 28.4163 21.8543C28.6826 22.501 28.8158 23.1858 28.8158 23.9085C28.8158 24.6313 28.6826 25.3065 28.4163 25.9342C28.1501 26.5619 27.7792 27.1135 27.3037 27.589C26.8281 28.0645 26.2766 28.4354 25.6489 28.7016C25.0212 28.9679 24.346 29.1011 23.6232 29.1011ZM32.9812 13.4664C33.2855 13.4664 33.5423 13.5615 33.7515 13.7517C33.9608 13.9419 34.0654 14.1892 34.0654 14.4935V17.6318C34.0654 17.9362 33.9608 18.1834 33.7515 18.3736C33.5423 18.5638 33.2855 18.6589 32.9812 18.6589H29.8429C29.5385 18.6589 29.2913 18.5638 29.1011 18.3736C28.9109 18.1834 28.8158 17.9362 28.8158 17.6318V14.4935C28.8158 14.1892 28.9109 13.9419 29.1011 13.7517C29.2913 13.5615 29.5385 13.4664 29.8429 13.4664H32.9812ZM35.7772 0C37.413 0 38.9631 0.313835 40.4277 0.941505C41.8922 1.56918 43.1666 2.42509 44.2508 3.50925C45.3349 4.5934 46.1908 5.85826 46.8185 7.3038C47.4462 8.74934 47.76 10.29 47.76 11.9257V35.7772C47.76 37.413 47.4462 38.9631 46.8185 40.4277C46.1908 41.8922 45.3349 43.1666 44.2508 44.2508C43.1666 45.3349 41.8922 46.1908 40.4277 46.8185C38.9631 47.4462 37.413 47.76 35.7772 47.76H11.9257C10.29 47.76 8.74934 47.4462 7.3038 46.8185C5.85826 46.1908 4.5934 45.3349 3.50925 44.2508C2.42509 43.1666 1.56918 41.8922 0.941505 40.4277C0.313835 38.9631 0 37.413 0 35.7772V11.9257C0 10.29 0.313835 8.74934 0.941505 7.3038C1.56918 5.85826 2.42509 4.5934 3.50925 3.50925C4.5934 2.42509 5.85826 1.56918 7.3038 0.941505C8.74934 0.313835 10.29 0 11.9257 0H35.7772ZM37.2037 13.4664C37.2037 12.5914 36.8994 11.8497 36.2908 11.241C35.6821 10.6324 34.9403 10.328 34.0654 10.328H13.1811C12.3061 10.328 11.5643 10.6324 10.9557 11.241C10.347 11.8497 10.0427 12.5914 10.0427 13.4664V34.3507C10.0427 35.2256 10.347 35.9674 10.9557 36.5761C11.5643 37.1847 12.3061 37.489 13.1811 37.489H34.0654C34.9403 37.489 35.6821 37.1847 36.2908 36.5761C36.8994 35.9674 37.2037 35.2256 37.2037 34.3507V13.4664Z" fill="black"/>
</svg>
