<svg width="48" height="48" viewBox="0 0 48 48" fill="none" xmlns="http://www.w3.org/2000/svg">
<path d="M23.9085 0C27.2181 0 30.3184 0.62767 33.2095 1.88301C36.1005 3.13835 38.6207 4.84067 40.77 6.98996C42.9193 9.13926 44.6216 11.6595 45.877 14.5505C47.1323 17.4416 47.76 20.5419 47.76 23.8515C47.76 27.161 47.1323 30.2613 45.877 33.1524C44.6216 36.0435 42.9193 38.5732 40.77 40.7415C38.6207 42.9098 36.1005 44.6216 33.2095 45.877C30.3184 47.1323 27.2181 47.76 23.9085 47.76C20.599 47.76 17.4987 47.1323 14.6076 45.877C11.7165 44.6216 9.18681 42.9098 7.01849 40.7415C4.85018 38.5732 3.13835 36.0435 1.88301 33.1524C0.62767 30.2613 0 27.161 0 23.8515C0 20.5419 0.62767 17.4416 1.88301 14.5505C3.13835 11.6595 4.85018 9.13926 7.01849 6.98996C9.18681 4.84067 11.7165 3.13835 14.6076 1.88301C17.4987 0.62767 20.599 0 23.9085 0ZM10.7275 12.6105C10.1949 12.9528 9.9286 13.4093 9.9286 13.9799C9.9286 14.4364 10.0903 14.8263 10.4136 15.1497C10.737 15.473 11.1269 15.6347 11.5834 15.6347C11.6595 15.6347 11.7165 15.6252 11.7546 15.6062C11.7926 15.5871 11.8497 15.5776 11.9257 15.5776C13.7517 14.8549 15.6252 14.3033 17.5462 13.9229C19.4673 13.5425 21.4549 13.3523 23.5091 13.3523C25.5633 13.3523 27.5509 13.5425 29.472 13.9229C31.393 14.3033 33.2475 14.8549 35.0354 15.5776C35.1115 15.5776 35.1781 15.5871 35.2351 15.6062C35.2922 15.6252 35.3588 15.6347 35.4348 15.6347C35.8913 15.6347 36.2717 15.473 36.5761 15.1497C36.8804 14.8263 37.0325 14.4364 37.0325 13.9799C37.0325 13.2952 36.7282 12.8387 36.1196 12.6105C34.1795 11.8497 32.1538 11.26 30.0426 10.8416C27.9313 10.4231 25.7535 10.2139 23.5091 10.2139C21.2267 10.2139 19.0203 10.4231 16.89 10.8416C14.7598 11.26 12.7056 11.8497 10.7275 12.6105ZM23.5091 18.6019C25.3351 18.6019 27.1135 18.7921 28.8443 19.1725C30.5751 19.5529 32.2394 20.0854 33.8371 20.7702C33.9132 20.7702 33.9608 20.7797 33.9798 20.7987C33.9988 20.8177 34.0464 20.8272 34.1224 20.8272C34.3126 20.8272 34.4838 20.7797 34.636 20.6846C34.7881 20.5895 34.9213 20.4849 35.0354 20.3708L35.2066 19.686C35.2066 19.3437 35.0925 19.0774 34.8642 18.8872C33.1144 18.1264 31.2979 17.5367 29.4149 17.1183C27.5319 16.6998 25.5633 16.4906 23.5091 16.4906C21.4549 16.4906 19.4863 16.6998 17.6033 17.1183C15.7203 17.5367 13.9038 18.1264 12.154 18.8872C11.8877 19.1535 11.7546 19.4197 11.7546 19.686L11.9828 20.3137C12.173 20.618 12.4583 20.7702 12.8387 20.7702C13.0289 20.7702 13.1621 20.7512 13.2381 20.7131C16.4716 19.3056 19.8952 18.6019 23.5091 18.6019ZM33.3806 25.2209C33.5328 24.9166 33.5328 24.6218 33.3806 24.3365C33.2285 24.0512 33.0383 23.8705 32.81 23.7944C31.4025 23.0716 29.9189 22.5486 28.3593 22.2252C26.7996 21.9019 25.1829 21.7402 23.5091 21.7402C20.1235 21.7402 16.9661 22.444 14.037 23.8515C13.9229 23.9276 13.7897 24.0702 13.6376 24.2794C13.4854 24.4886 13.4854 24.7835 13.6376 25.1639C13.7897 25.5823 13.9799 25.8106 14.2082 25.8486C14.4364 25.8866 14.6266 25.8676 14.7788 25.7915C17.5557 24.4982 20.4659 23.8515 23.5091 23.8515C25.0307 23.8515 26.4953 24.0131 27.9028 24.3365C29.3103 24.6598 30.6798 25.1068 32.0112 25.6774C32.6579 25.9817 33.1144 25.8296 33.3806 25.2209ZM34.8642 37.5461C35.625 37.5461 36.3383 37.4034 37.004 37.1181C37.6697 36.8328 38.2689 36.4619 38.8014 36.0054C38.1167 34.674 37.2608 33.4567 36.2337 32.3535C35.2066 31.2504 34.0559 30.3089 32.7815 29.529C31.5071 28.7492 30.1282 28.1405 28.6446 27.7031C27.161 27.2656 25.6204 27.0469 24.0227 27.0469C22.3489 27.0469 20.7512 27.2751 19.2295 27.7316C17.7079 28.1881 16.2909 28.8348 14.9785 29.6717C13.6661 30.5086 12.4963 31.5167 11.4692 32.6959C10.4422 33.8752 9.60526 35.1686 8.95857 36.5761C9.90958 37.2227 10.9557 37.5461 12.0969 37.5461H15.7488C16.6998 36.2527 17.8886 35.2256 19.3151 34.4648C20.7416 33.704 22.3108 33.3236 24.0227 33.3236C25.7345 33.3236 27.3132 33.704 28.7587 34.4648C30.2043 35.2256 31.3835 36.2527 32.2965 37.5461H34.8642Z" fill="black"/>
</svg>
