<svg width="48" height="39" viewBox="0 0 48 39" fill="none" xmlns="http://www.w3.org/2000/svg">
<path d="M47.76 4.62194C46.3477 6.67613 44.7108 8.34516 42.8492 9.62903V10.9771C42.8492 14.1868 42.2394 17.4446 41.0197 20.7506C39.8 24.0565 38.0186 27.0415 35.6756 29.7056C33.3325 32.3696 30.4277 34.5522 26.9613 36.2533C23.4948 37.9544 19.5148 38.805 15.0213 38.805C12.1968 38.805 9.53274 38.4198 7.02919 37.6495C4.52565 36.8792 2.18258 35.7879 0 34.3756C0.385161 34.4398 0.770323 34.488 1.15548 34.5201C1.54065 34.5522 1.92581 34.5682 2.31097 34.5682C4.62194 34.5682 6.82056 34.1831 8.90685 33.4127C10.9931 32.6424 12.8708 31.6153 14.5398 30.3315C12.3573 30.2673 10.4475 29.6093 8.81056 28.3575C7.17363 27.1057 6.03419 25.4848 5.39226 23.4948C5.71323 23.6232 6.01815 23.6874 6.30702 23.6874H7.22177C8.12048 23.6874 8.955 23.5911 9.72532 23.3985C7.47855 22.885 5.61694 21.7456 4.14048 19.9802C2.66403 18.2149 1.92581 16.1447 1.92581 13.7695V13.6732C2.63194 13.9942 3.33806 14.267 4.04419 14.4917C4.75032 14.7164 5.52064 14.8287 6.35516 14.8287C5.07129 13.93 4.02815 12.7745 3.22573 11.3623C2.42331 9.95 2.0221 8.40935 2.0221 6.74032C2.0221 4.9429 2.47145 3.30597 3.37016 1.82952C5.80952 4.78242 8.76242 7.17363 12.2289 9.00314C15.6953 10.8327 19.4506 11.8437 23.4948 12.0363C23.3023 11.266 23.206 10.5277 23.206 9.82161C23.206 8.47355 23.4627 7.20573 23.9763 6.01815C24.4898 4.83056 25.196 3.78742 26.0947 2.88871C26.9934 1.99 28.0365 1.28387 29.2241 0.770323C30.4117 0.256774 31.6795 0 33.0276 0C34.4398 0 35.7558 0.272823 36.9755 0.818468C38.1952 1.36411 39.2544 2.11839 40.1531 3.08129C41.3085 2.88871 42.3998 2.58379 43.4269 2.16653C44.454 1.74927 45.449 1.25177 46.4119 0.674032C45.6416 3.04919 44.1973 4.87871 42.0789 6.16258C44.1331 5.84161 46.0268 5.32806 47.76 4.62194Z" fill="black"/>
</svg>
